<?xml version="1.0" encoding="utf-8"?>
<!-- Generator: Adobe Illustrator 25.1.0, SVG Export Plug-In . SVG Version: 6.00 Build 0)  -->
<svg version="1.1" xmlns="http://www.w3.org/2000/svg" xmlns:xlink="http://www.w3.org/1999/xlink" x="0px" y="0px"
	 viewBox="0 0 665 248.1" style="enable-background:new 0 0 665 248.1;" xml:space="preserve">
<style type="text/css">
	.st0{fill:#107ADB;}
	.st1{fill:#231F20;}
</style>
<g id="logo">
</g>
<g id="Guides">
	<g>
		<g>
			<g>
				<polygon points="624.1,41.9 624.1,4 662,41.9 				"/>
				
					<rect x="586.3" y="4" transform="matrix(1.354959e-10 -1 1 1.354959e-10 582.2709 628.1563)" class="st0" width="37.9" height="37.9"/>
				<polygon class="st0" points="624.1,79.7 624.1,41.9 662,41.9 				"/>
			</g>
			<g>
				<path d="M41.4,41.6C18.3,41.6,4,55.6,4,78v48.9h20V78c0-11.4,6.3-17.9,17.3-17.9c11,0,17.8,6.9,17.8,17.9v48.9h20V78
					C79.2,55.6,64.7,41.6,41.4,41.6z"/>
				<path d="M548.5,41.6c-11.3,0-20.8,3.5-27.4,10.2c-6.7-6.7-16.3-10.2-27.7-10.2c-23,0-37.4,13.9-37.4,36.3v48.9h20V78
					c0-11.4,6.3-17.9,17.3-17.9c11.1,0,17.8,6.7,17.8,17.9v48.9h20V77.9c0-11.4,6.3-17.9,17.3-17.9c11,0,17.8,6.9,17.8,17.9v48.9h20
					V78C586.3,55.6,571.8,41.6,548.5,41.6z"/>
				<path d="M132.4,41.4c-25.6,0-44.9,18.4-44.9,42.7c0,24.1,19.7,42.9,44.9,42.9s44.9-18.9,44.9-42.9
					C177.2,59.8,157.9,41.4,132.4,41.4z M156.9,84.1c0,13.5-10.9,24.5-24.3,24.5c-13.6,0-24.7-11-24.7-24.5
					c0-13.4,11.1-24.3,24.7-24.3C146,59.8,156.9,70.7,156.9,84.1z"/>
				<path d="M221.5,41.9H186v84.5h35c25.8,0,44.5-17.8,44.5-42.3S247,41.9,221.5,41.9z M245.1,84.2c0,13.9-9.8,23.9-23.3,23.9H206
					V60.1h15.3C235.1,60.1,245.1,70.2,245.1,84.2z"/>
				<polygon points="329.1,75.9 294.1,75.9 294.1,41.9 274.1,41.9 274.1,126.4 294.1,126.4 294.1,94 329.1,94 329.1,126.4 
					349.2,126.4 349.2,41.9 329.1,41.9 				"/>
				<path d="M402.8,41.4c-25.6,0-44.9,18.4-44.9,42.7c0,24.1,19.7,42.9,44.9,42.9s44.9-18.9,44.9-42.9
					C447.7,59.8,428.4,41.4,402.8,41.4z M427.3,84.1c0,13.5-10.9,24.5-24.3,24.5c-13.6,0-24.7-11-24.7-24.5
					c0-13.4,11.1-24.3,24.7-24.3C416.4,59.8,427.3,70.7,427.3,84.1z"/>
			</g>
		</g>
		<g>
			<g>
				<circle class="st1" cx="542.3" cy="173.6" r="9"/>
				<circle class="st1" cx="457.8" cy="173.6" r="9"/>
			</g>
			<path class="st1" d="M586.2,216.7V191H570v25.8l0,0.2c0,1.1-0.4,6.4-3.1,9c-0.8,0.8-2.3,2-5.7,2h-50.6c1.4-3.3,2.2-7.1,2.2-11.7
				c0-1.7-0.1-12.9-7.7-20.6c-4.4-4.4-10.3-6.8-17.2-6.8h-53.2v-30.9h-16.1V228h-39l-0.7,0c0,0-3.3,0.1-5.5-1.9
				c-2.4-2.1-2.8-6.3-2.8-9.3h-0.2c0-0.6,0.1-1.2,0.1-1.8c0-15.8-12.9-28.6-28.7-28.6c-14.6,0-26.6,10.9-28.5,24.9l-0.1,0
				c0,0.2-1.9,16.7-30.5,16.7v16.1c17.5,0,28.9-5.3,36.1-11.9c5.2,7,13.6,11.5,23,11.5c7.3,0,14-2.8,19.1-7.3
				c0.5,0.6,1.1,1.2,1.7,1.7c6,5.5,13.2,6.1,16.4,6.1c0.4,0,0.7,0,1,0H488h73.3c6.9,0,12.9-2.4,17.2-6.8
				C586,229.6,586.2,218.5,586.2,216.7z M341.8,227.4c-6.9,0-12.6-5.6-12.6-12.5c0-6.9,5.6-12.5,12.6-12.5s12.6,5.6,12.6,12.5
				C354.4,221.8,348.7,227.4,341.8,227.4z M487.4,228h-52.6v-22.9H488c3.3,0,4.8,1.1,5.6,1.9c2.5,2.6,3.1,7.6,3.1,9.1l0,0.2
				C496.7,225.4,490,227.5,487.4,228z"/>
		</g>
	</g>
</g>
</svg>
