<svg xmlns="http://www.w3.org/2000/svg" viewBox="0 0 64 80" x="0px" y="0px"><title>02 dark mode desktop design moon mojave MacOs</title><path d="M41.06,24a1,1,0,0,0-1.12.35,5.2,5.2,0,0,1-4.2,2.13,5.26,5.26,0,0,1-5.25-5.25,5.2,5.2,0,0,1,2.13-4.2A1,1,0,0,0,33,15.94a1,1,0,0,0-1-.69A9.75,9.75,0,1,0,41.75,25,1,1,0,0,0,41.06,24ZM32,32.75a7.75,7.75,0,0,1-2.56-15.06,7.15,7.15,0,0,0-.94,3.56,7.26,7.26,0,0,0,7.25,7.25,7.14,7.14,0,0,0,3.57-.94A7.76,7.76,0,0,1,32,32.75Z"/><path d="M60,8H4A1,1,0,0,0,3,9V51a1,1,0,0,0,1,1H26v7H18.5v2h27V59H38V52H60a1,1,0,0,0,1-1V9A1,1,0,0,0,60,8ZM5,10H59V39H5ZM36,59H28V52h8Zm23-9H5V41H59Z"/><circle cx="32" cy="45" r="2"/><rect x="46" y="34" width="2" height="2"/><rect x="50" y="34" width="2" height="2"/><rect x="42" y="34" width="2" height="2"/><rect x="54" y="34" width="2" height="2"/><rect x="54" y="14" width="2" height="2"/><rect x="54" y="18" width="2" height="2"/><rect x="54" y="22" width="2" height="2"/><rect x="54" y="26" width="2" height="2"/><rect x="8" y="25" width="2" height="2"/><rect x="8" y="29" width="2" height="2"/><rect x="8" y="21" width="2" height="2"/><rect x="8" y="33" width="2" height="2"/><rect x="50" y="30" width="2" height="2"/><rect x="54" y="30" width="2" height="2"/><rect x="8" y="13" width="2" height="2"/><rect x="16" y="13" width="2" height="2"/><rect x="12" y="13" width="2" height="2"/><rect x="20" y="13" width="2" height="2"/><rect x="8" y="17" width="2" height="2"/><rect x="12" y="17" width="2" height="2"/><text x="0" y="79" fill="#000000" font-size="5px" font-weight="bold" font-family="'Helvetica Neue', Helvetica, Arial-Unicode, Arial, Sans-serif">Created by Andi Nur Abdillah</text><text x="0" y="84" fill="#000000" font-size="5px" font-weight="bold" font-family="'Helvetica Neue', Helvetica, Arial-Unicode, Arial, Sans-serif">from the Noun Project</text></svg>